<svg xmlns="http://www.w3.org/2000/svg" width="67" height="167" viewBox="0 0 67 167">
  <defs>
    <style>
      .cls-1 {
        fill: #214b71;
        fill-rule: evenodd;
        opacity: 0.1;
      }
    </style>
  </defs>
  <path id="Ellipse_" data-name="Ellipse " class="cls-1" d="M4.5,85A3.5,3.5,0,1,1,1,88.5,3.5,3.5,0,0,1,4.5,85Zm20,0A3.5,3.5,0,1,1,21,88.5,3.5,3.5,0,0,1,24.5,85Zm20,0A3.5,3.5,0,1,1,41,88.5,3.5,3.5,0,0,1,44.5,85Zm20,0A3.5,3.5,0,1,1,61,88.5,3.5,3.5,0,0,1,64.5,85Zm-60,20A3.5,3.5,0,1,1,1,108.5,3.5,3.5,0,0,1,4.5,105Zm20,0a3.5,3.5,0,1,1-3.5,3.5A3.5,3.5,0,0,1,24.5,105Zm20,0a3.5,3.5,0,1,1-3.5,3.5A3.5,3.5,0,0,1,44.5,105Zm20,0a3.5,3.5,0,1,1-3.5,3.5A3.5,3.5,0,0,1,64.5,105Zm-60,20A3.5,3.5,0,1,1,1,128.5,3.5,3.5,0,0,1,4.5,125Zm20,0a3.5,3.5,0,1,1-3.5,3.5A3.5,3.5,0,0,1,24.5,125Zm20,0a3.5,3.5,0,1,1-3.5,3.5A3.5,3.5,0,0,1,44.5,125Zm20,0a3.5,3.5,0,1,1-3.5,3.5A3.5,3.5,0,0,1,64.5,125Zm-60,20A3.5,3.5,0,1,1,1,148.5,3.5,3.5,0,0,1,4.5,145Zm20,0a3.5,3.5,0,1,1-3.5,3.5A3.5,3.5,0,0,1,24.5,145Zm20,0a3.5,3.5,0,1,1-3.5,3.5A3.5,3.5,0,0,1,44.5,145Zm20,0a3.5,3.5,0,1,1-3.5,3.5A3.5,3.5,0,0,1,64.5,145Zm-60,20A3.5,3.5,0,1,1,1,168.5,3.5,3.5,0,0,1,4.5,165Zm20,0a3.5,3.5,0,1,1-3.5,3.5A3.5,3.5,0,0,1,24.5,165Zm20,0a3.5,3.5,0,1,1-3.5,3.5A3.5,3.5,0,0,1,44.5,165Zm20,0a3.5,3.5,0,1,1-3.5,3.5A3.5,3.5,0,0,1,64.5,165Zm-60,20A3.5,3.5,0,1,1,1,188.5,3.5,3.5,0,0,1,4.5,185Zm20,0a3.5,3.5,0,1,1-3.5,3.5A3.5,3.5,0,0,1,24.5,185Zm20,0a3.5,3.5,0,1,1-3.5,3.5A3.5,3.5,0,0,1,44.5,185Zm20,0a3.5,3.5,0,1,1-3.5,3.5A3.5,3.5,0,0,1,64.5,185Zm-60,20A3.5,3.5,0,1,1,1,208.5,3.5,3.5,0,0,1,4.5,205Zm20,0a3.5,3.5,0,1,1-3.5,3.5A3.5,3.5,0,0,1,24.5,205Zm20,0a3.5,3.5,0,1,1-3.5,3.5A3.5,3.5,0,0,1,44.5,205Zm20,0a3.5,3.5,0,1,1-3.5,3.5A3.5,3.5,0,0,1,64.5,205Zm-60,20A3.5,3.5,0,1,1,1,228.5,3.5,3.5,0,0,1,4.5,225Zm20,0a3.5,3.5,0,1,1-3.5,3.5A3.5,3.5,0,0,1,24.5,225Zm20,0a3.5,3.5,0,1,1-3.5,3.5A3.5,3.5,0,0,1,44.5,225Zm20,0a3.5,3.5,0,1,1-3.5,3.5A3.5,3.5,0,0,1,64.5,225Zm-60,20A3.5,3.5,0,1,1,1,248.5,3.5,3.5,0,0,1,4.5,245Zm20,0a3.5,3.5,0,1,1-3.5,3.5A3.5,3.5,0,0,1,24.5,245Zm20,0a3.5,3.5,0,1,1-3.5,3.5A3.5,3.5,0,0,1,44.5,245Zm20,0a3.5,3.5,0,1,1-3.5,3.5A3.5,3.5,0,0,1,64.5,245Z" transform="translate(-1 -85)"/>
</svg>
