<svg id="top-right-bg" xmlns="http://www.w3.org/2000/svg" width="663" height="351.969" viewBox="0 0 663 351.969">
  <metadata><?xpacket begin="﻿" id="W5M0MpCehiHzreSzNTczkc9d"?>
<x:xmpmeta xmlns:x="adobe:ns:meta/" x:xmptk="Adobe XMP Core 5.6-c138 79.159824, 2016/09/14-01:09:01        ">
   <rdf:RDF xmlns:rdf="http://www.w3.org/1999/02/22-rdf-syntax-ns#">
      <rdf:Description rdf:about=""/>
   </rdf:RDF>
</x:xmpmeta>
                                                                                                    
                                                                                                    
                                                                                                    
                                                                                                    
                                                                                                    
                                                                                                    
                                                                                                    
                                                                                                    
                                                                                                    
                                                                                                    
                                                                                                    
                                                                                                    
                                                                                                    
                                                                                                    
                                                                                                    
                                                                                                    
                                                                                                    
                                                                                                    
                                                                                                    
                                                                                                    
                           
<?xpacket end="w"?></metadata>
<defs>
    <style>
      .cls-1 {
        fill: #224c72;
      }

      .cls-1, .cls-2, .cls-4, .cls-5 {
        fill-rule: evenodd;
      }

      .cls-2 {
        fill: #d1e9ff;
        opacity: 0.1;
      }

      .cls-3 {
        fill: #d89309;
        stroke-width: 5px;
      }

      .cls-3, .cls-4, .cls-5 {
        stroke: #fff;
      }

      .cls-4 {
        fill: #0b2843;
        stroke-width: 3px;
      }

      .cls-5 {
        fill: #3078b9;
        stroke-width: 2px;
      }
    </style>
  </defs>
  <path class="cls-1" d="M1712.97,74.046L1700,83H1037s150.96,18.518,210.99,94.757,85.48,56.791,161.99,110.159S1591.98,410.3,1700,426" transform="translate(-1037 -74.031)"/>
  <path id="Ellipse_1_copy_16" data-name="Ellipse 1 copy 16" class="cls-2" d="M1792.5,93a3.5,3.5,0,1,1-3.5,3.5A3.5,3.5,0,0,1,1792.5,93Zm0,20a3.5,3.5,0,1,1-3.5,3.5A3.5,3.5,0,0,1,1792.5,113Zm0,20a3.5,3.5,0,1,1-3.5,3.5A3.5,3.5,0,0,1,1792.5,133Zm0,20a3.5,3.5,0,1,1-3.5,3.5A3.5,3.5,0,0,1,1792.5,153Zm-20-60a3.5,3.5,0,1,1-3.5,3.5A3.5,3.5,0,0,1,1772.5,93Zm0,20a3.5,3.5,0,1,1-3.5,3.5A3.5,3.5,0,0,1,1772.5,113Zm0,20a3.5,3.5,0,1,1-3.5,3.5A3.5,3.5,0,0,1,1772.5,133Zm0,20a3.5,3.5,0,1,1-3.5,3.5A3.5,3.5,0,0,1,1772.5,153Zm-20-60a3.5,3.5,0,1,1-3.5,3.5A3.5,3.5,0,0,1,1752.5,93Zm0,20a3.5,3.5,0,1,1-3.5,3.5A3.5,3.5,0,0,1,1752.5,113Zm0,20a3.5,3.5,0,1,1-3.5,3.5A3.5,3.5,0,0,1,1752.5,133Zm0,20a3.5,3.5,0,1,1-3.5,3.5A3.5,3.5,0,0,1,1752.5,153Zm-20-60a3.5,3.5,0,1,1-3.5,3.5A3.5,3.5,0,0,1,1732.5,93Zm0,20a3.5,3.5,0,1,1-3.5,3.5A3.5,3.5,0,0,1,1732.5,113Zm0,20a3.5,3.5,0,1,1-3.5,3.5A3.5,3.5,0,0,1,1732.5,133Zm0,20a3.5,3.5,0,1,1-3.5,3.5A3.5,3.5,0,0,1,1732.5,153Zm-20-60a3.5,3.5,0,1,1-3.5,3.5A3.5,3.5,0,0,1,1712.5,93Zm0,20a3.5,3.5,0,1,1-3.5,3.5A3.5,3.5,0,0,1,1712.5,113Zm0,20a3.5,3.5,0,1,1-3.5,3.5A3.5,3.5,0,0,1,1712.5,133Zm0,20a3.5,3.5,0,1,1-3.5,3.5A3.5,3.5,0,0,1,1712.5,153Zm-20-60a3.5,3.5,0,1,1-3.5,3.5A3.5,3.5,0,0,1,1692.5,93Zm0,20a3.5,3.5,0,1,1-3.5,3.5A3.5,3.5,0,0,1,1692.5,113Zm0,20a3.5,3.5,0,1,1-3.5,3.5A3.5,3.5,0,0,1,1692.5,133Zm0,20a3.5,3.5,0,1,1-3.5,3.5A3.5,3.5,0,0,1,1692.5,153Zm-20-60a3.5,3.5,0,1,1-3.5,3.5A3.5,3.5,0,0,1,1672.5,93Zm0,20a3.5,3.5,0,1,1-3.5,3.5A3.5,3.5,0,0,1,1672.5,113Zm0,20a3.5,3.5,0,1,1-3.5,3.5A3.5,3.5,0,0,1,1672.5,133Zm0,20a3.5,3.5,0,1,1-3.5,3.5A3.5,3.5,0,0,1,1672.5,153Zm-20-60a3.5,3.5,0,1,1-3.5,3.5A3.5,3.5,0,0,1,1652.5,93Zm0,20a3.5,3.5,0,1,1-3.5,3.5A3.5,3.5,0,0,1,1652.5,113Zm0,20a3.5,3.5,0,1,1-3.5,3.5A3.5,3.5,0,0,1,1652.5,133Zm0,20a3.5,3.5,0,1,1-3.5,3.5A3.5,3.5,0,0,1,1652.5,153Zm-20-60a3.5,3.5,0,1,1-3.5,3.5A3.5,3.5,0,0,1,1632.5,93Zm0,20a3.5,3.5,0,1,1-3.5,3.5A3.5,3.5,0,0,1,1632.5,113Zm0,20a3.5,3.5,0,1,1-3.5,3.5A3.5,3.5,0,0,1,1632.5,133Zm0,20a3.5,3.5,0,1,1-3.5,3.5A3.5,3.5,0,0,1,1632.5,153Z" transform="translate(-1037 -74.031)"/>
  <circle id="Ellipse_2_copy_10" data-name="Ellipse 2 copy 10" class="cls-3" cx="561.345" cy="105.266" r="27.655"/>
  <path id="Ellipse_2_copy_10-2" data-name="Ellipse 2 copy 10" class="cls-4" d="M1573.71,128a11.793,11.793,0,1,1-11.77,11.792A11.79,11.79,0,0,1,1573.71,128Z" transform="translate(-1037 -74.031)"/>
  <path id="Ellipse_2_copy_10-3" data-name="Ellipse 2 copy 10" class="cls-5" d="M1562.47,160.357a5.489,5.489,0,1,1-5.47,5.489A5.483,5.483,0,0,1,1562.47,160.357Z" transform="translate(-1037 -74.031)"/>
</svg>
